# xmcd
# Track frame offsets:
# 150
# 9693
# 22280
# 32966
# 42286
# 55494
# 67458
# 77591
# 90015
# 99175
# 111358
# 125243
# 138214
# 147861
#
# Disc length: 2114 seconds
# Revision: 0
# Processed by: cddbd v1.4PL0 Copyright (c) Steve Scherf et al.
# Submitted via: VisiTrax 2.9.5.180 - For more info visit www.synapsa.com
#
DISCID=c608400e
DTITLE=Wenche Hartmann - A tribute to Patsy Cline with love
DYEAR=2002
DGENRE=
TTITLE0=Blue moon of Kentucky
TTITLE1=Sweet dreams
TTITLE2=I've loved and lost again
TTITLE3=Foolin' around
TTITLE4=I fall to pieces
TTITLE5=Just a closer walk with thee
TTITLE6=Sa Antonio Rose
TTITLE7=He called me baby
TTITLE8=Walking after midnight
TTITLE9=Crazy
TTITLE10=She's got you
TTITLE11=If I could see the world (through the eyes of a child)
TTITLE12=Back in baby's arms
TTITLE13=Half as much
EXTD=
EXTT0=
EXTT1=
EXTT2=
EXTT3=
EXTT4=
EXTT5=
EXTT6=
EXTT7=
EXTT8=
EXTT9=
EXTT10=
EXTT11=
EXTT12=
EXTT13=
PLAYORDER=
